# xmcd CD database file
#
# Track frame offsets:
#	215
#	28422
#	52265
#	85582
#	110095
#	138092
#	169495
#	199315
#	202830
#	226507
#	252280
#	268617
#
# Disc length: 3694 seconds
#
# Revision: 1
# Processed by: cddbd v1.4PL0 Copyright (c) Steve Scherf et al.
# Submitted via: CDex 1.51
#
DISCID=a80e6c0c
DTITLE=Javier Malosetti - Javier Malosetti
DYEAR=1995
DGENRE=Jazz
TTITLE0=Como Tú Quieras
TTITLE1=Basurero Nuclear
TTITLE2=Vos Y Tu Ropa
TTITLE3=Beat Blues
TTITLE4=The Three Deuces
TTITLE5=Grüssgott
TTITLE6=Estimulante (Buenas Noches)
TTITLE7=Far West Blues
TTITLE8=Thou Swell
TTITLE9=Blancas
TTITLE10=Don´t Make Me Over
TTITLE11=Purple Haze (En Vivo)
EXTD=YEAR: 1995
EXTT0=
EXTT1=
EXTT2=
EXTT3=
EXTT4=
EXTT5=
EXTT6=
EXTT7=
EXTT8=
EXTT9=
EXTT10=
EXTT11=
PLAYORDER=
